<svg width="112" height="112" viewBox="0 0 112 112" fill="none" xmlns="http://www.w3.org/2000/svg">
<g clip-path="url(#clip0_1_126)">
<mask id="mask0_1_126" style="mask-type:alpha" maskUnits="userSpaceOnUse" x="7" y="2" width="98" height="87">
<path d="M44.3213 11.4464C47.2317 -0.875801 64.7683 -0.875828 67.6787 11.4463L74.7094 41.2138C75.2496 43.5008 76.4494 45.5789 78.1599 47.1903L100.424 68.1628C109.64 76.8443 100.872 92.0315 88.7453 88.3908L59.4505 79.5959C57.1998 78.9202 54.8002 78.9202 52.5495 79.5959L23.2548 88.3908C11.1283 92.0315 2.35994 76.8443 11.5761 68.1628L33.8401 47.1903C35.5506 45.579 36.7504 43.5008 37.2906 41.2138L44.3213 11.4464Z" fill="#D9D9D9"/>
</mask>
<g mask="url(#mask0_1_126)">
<g style="mix-blend-mode:multiply">
<rect x="-34" y="-27" width="162" height="150" fill="url(#paint0_linear_1_126)"/>
</g>
</g>
</g>
<defs>
<linearGradient id="paint0_linear_1_126" x1="63" y1="4.5" x2="101" y2="82.5" gradientUnits="userSpaceOnUse">
<stop stop-color="#64D0FF"/>
<stop offset="1" stop-color="#FFB0D1"/>
</linearGradient>
<clipPath id="clip0_1_126">
<rect width="112" height="112" fill="white"/>
</clipPath>
</defs>
</svg>
